<?xml version="1.0" encoding="utf-8"?>
<!-- Generator: Adobe Illustrator 25.3.1, SVG Export Plug-In . SVG Version: 6.00 Build 0)  -->
<svg version="1.1" id="Слой_1" xmlns="http://www.w3.org/2000/svg" xmlns:xlink="http://www.w3.org/1999/xlink" x="0px" y="0px"
	 viewBox="0 0 408.91 410.26" style="enable-background:new 0 0 408.91 410.26;" xml:space="preserve">
<style type="text/css">
	.st0{fill:slategray;}
	.st1{fill:white;}
</style>
<g>
	<circle class="st0" cx="204.45" cy="205.13" r="200"/>
	<path class="st1" d="M266.21,309.95c-2.38,3.5-25.82-6.27-27.92-7.88c-6.04-4.63-33.44-27.43-43.84-40.63
		c-8.5-10.78,7.32-29.03,6.61-44.57c-0.49-10.7-0.84-17.02-8.75-24.05c-25.05-22.25-83.3-0.27-104.78,12.26
		c-13.71,8-48.85,28.86-45.09,24.57c1.81-2.06,24.02-31.05,39.77-46.07c46.13-44,106.27-61.72,149.63-46.89
		c22.73,7.77,43.14,25.95,60.86,42.24c11.08,10.18,26.19,9.19,27.21,7.16c1.53-3.06-23.56-16.07-21.48-21.48
		c1.35-3.49,20.78-2.44,23.63,0c11.98,10.25,48.33,52.62,44.39,57.28c-3.33,3.93-29.04,10.31-40.11-2.25
		c-0.76-0.86-1.87-1.31-3.02-1.29l-36.06,0.63c-2.09,0.04-3.82,1.67-3.95,3.76c-0.21,3.41,0.11,7.56-3.26,11.48
		c-8.65,10.04-34.6,2.14-34.58-0.72c0.01-2.01,14.09,0.29,23.24-8.51c5.14-4.94,5.15-9.95,6.09-13.4c0.55-2,2.37-3.39,4.44-3.48
		l43.8-0.41c1.63-0.07,3.23,0.49,4.47,1.56c8.13,7.1,17.96,12.94,26.05,8.56c0.85-0.46,1.14-1.56,0.63-2.38
		c-3.01-4.93-13.12-20.8-18.57-20.8c-8.61,0-13.04,3.51-32.17,0.78c-24.74-3.53-36.85-26.68-65.15-40.09
		c-28.37-13.44-49.21-9.37-65.39-5.91c-34.3,7.34-73.37,29.46-86.26,42.35c-1.48,1.48,35.05-19.15,68.61-22.84
		c22.81-2.5,42.05,1.64,49.21,8.26c13.14,12.15,13.52,30.91,13.39,32.66c-1.41,18.77-10.51,23.02-8.9,35.68
		c1.49,11.75,9.79,14.95,34.37,39.56C251.9,293.68,268.81,306.13,266.21,309.95z"/>
</g>
</svg>
